HIERARCHY
ROOT pelvis
{
  OFFSET 0 100 0
  CHANNELS 6 Xposition Yposition Zposition Zrotation Xrotation Yrotation
  JOINT pelvis_right_femur
  {
    OFFSET -10.78128 -3.44521 -0.5502486
    CHANNELS 3 Zrotation Xrotation Yrotation
    JOINT right_femur_tibia
    {
      OFFSET -0.8047443 -44.0398 -0.1307829
      CHANNELS 3 Zrotation Xrotation Yrotation
      JOINT right_tibia_foot
      {
        OFFSET 3.006224 -47.83518 -5
        CHANNELS 3 Zrotation Xrotation Yrotation
        End Site
        {
          OFFSET 0 -5 15
        }
      }
    }
  }
  JOINT pelvis_left_femur
  {
    OFFSET 10.78128 -3.44521 -0.5502486
    CHANNELS 3 Zrotation Xrotation Yrotation
    JOINT left_femur_tibia
    {
      OFFSET 0.8047443 -44.0398 -0.1307829
      CHANNELS 3 Zrotation Xrotation Yrotation
      JOINT left_tibia_foot
      {
        OFFSET -4.370144 -48.10324 -4.275266
        CHANNELS 3 Zrotation Xrotation Yrotation
        End Site
        {
          OFFSET 0 -5 15
        }
      }
    }
  }
  JOINT pelvis_spine1
  {
    OFFSET 0 6.468898 -3.129235
    CHANNELS 3 Zrotation Xrotation Yrotation
    JOINT spine1
    {
      OFFSET 0 23.15396 4.99043
      CHANNELS 3 Zrotation Xrotation Yrotation
      JOINT spine2
      {
        OFFSET 0 20.79997 -5.064912
        CHANNELS 3 Zrotation Xrotation Yrotation
        JOINT neck
        {
          OFFSET 0 14.38658 9.616178
          CHANNELS 3 Zrotation Xrotation Yrotation
          End Site
          {
            OFFSET 0 20 0
          }
        }
      }
      JOINT right_manubrium
      {
        OFFSET -5.722621 16.35077 3.967754
        CHANNELS 3 Zrotation Xrotation Yrotation
        JOINT right_clavicle
        {
          OFFSET -13.16364 1.694482 -4.693211
          CHANNELS 3 Zrotation Xrotation Yrotation
          JOINT right_humerus
          {
            OFFSET -28.5034 -0.3100689 -2.792744
            CHANNELS 3 Zrotation Xrotation Yrotation
            JOINT right_radius
            {
              OFFSET -25.15693 0.02248979 -1.271978
              CHANNELS 3 Zrotation Xrotation Yrotation
              End Site
              {
                OFFSET -15 0 0
              }
            }
          }
        }
      }
      JOINT left_manubrium
      {
        OFFSET 5.722621 16.35077 3.967754
        CHANNELS 3 Zrotation Xrotation Yrotation
        JOINT left_clavicle
        {
          OFFSET 13.16364 1.694482 -4.693211
          CHANNELS 3 Zrotation Xrotation Yrotation
          JOINT left_humerus
          {
            OFFSET 29.39168 -1.063119 -2.237045
            CHANNELS 3 Zrotation Xrotation Yrotation
            JOINT left_radius
            {
              OFFSET 24.59957 -0.9528479 0.9047498
              CHANNELS 3 Zrotation Xrotation Yrotation
              End Site
              {
                OFFSET 15 -0 -0
              }
            }
          }
        }
      }
    }
  }
}
MOTION
Frames: 17
Frame Time: 0.0416666666667
897.6589 99.06367 2986.636 2.608267 -1.864391 31.48663 1.225717 -27.42815 0.5006301 -0 6.843101 -0 0.02797786 1.743835 -7.756683 -5.120902 17.66315 -6.794117 -0 19.23436 -0 -5.673331 -19.95128 10.55556 -2.048505 -1.649243 1.090529 1.026389 10.48298 -5.872913 0.9295434 26.3572 5.789781 4.053426 -13.1617 4.747675 4.684262 -13.36825 14.2309 85.78401 20.93864 -18.41294 -0 0 2.49985 -25.46847 10.54478 14.30588 8.246411 -24.97207 -6.893492 -85.94277 15.96006 8.034339 0 0 -19.87593 20.98315 24.65448 -11.73049
901.0749 98.34173 2992.984 2.20408 -1.906476 31.789 2.726249 -25.92351 1.960089 -0 7.468946 -0 0.002275159 1.824912 -8.113997 -4.489175 18.3064 -6.69139 -0 25.83461 -0 -7.337239 -17.53265 10.28337 -1.990641 -1.726088 1.125156 1.00779 10.58262 -5.924951 0.9172185 26.29164 5.830179 4.042661 -13.35957 4.808375 4.522509 -13.50288 14.18639 86.04442 20.72252 -18.65588 -0 0 2.507476 -25.53438 10.57417 14.27865 8.240916 -25.10238 -6.946181 -85.95296 15.98545 8.104847 0 0 -20.07375 20.91005 24.502 -11.57686
904.4727 98.25879 2999.54 1.962483 -2.680924 31.82237 4.422553 -22.93098 3.700179 -0 10.89871 -0 -0.5568852 0.8671134 -8.328042 -3.63874 17.35749 -6.740334 -0 34.27432 -0 -8.42216 -14.02011 10.92121 -1.856676 -1.956228 1.244174 0.9885063 10.86325 -6.076011 0.8585293 26.13073 5.878926 4.062972 -13.53891 4.807192 4.368373 -13.75138 14.23736 86.28919 20.41158 -19.05993 -0 0 2.717618 -25.90903 10.86131 14.35035 8.269486 -25.39364 -7.027923 -86.07552 15.76212 8.407652 0 0 -20.18964 21.05059 24.3353 -11.71863
907.7724 98.84043 3006.039 2.087259 -3.965711 31.48602 5.716365 -18.5955 5.107512 -0 15.03502 -0 -1.470373 -1.152174 -8.281885 -2.943558 14.4217 -6.862855 -0 43.58014 -0 -8.809231 -10.42698 12.34624 -1.637458 -2.339737 1.447596 0.984863 11.33201 -6.339817 0.7477438 25.87361 5.925445 4.128668 -13.64362 4.70926 4.279445 -14.0707 14.41555 86.45427 20.04121 -19.63665 -0 0 3.124365 -26.60378 11.46747 14.51478 8.349968 -25.86325 -7.126256 -86.31078 15.2375 8.906475 0 0 -20.20369 21.49187 24.19301 -12.2926
910.9118 99.91962 3012.226 2.656105 -5.320742 30.83718 6.204882 -13.22065 5.813357 -0 17.75872 -0 -2.369963 -3.742693 -7.914552 -2.655292 9.459781 -6.939954 -0 51.95533 -0 -8.742568 -7.823914 14.08497 -1.331488 -2.84333 1.717737 1.018192 11.96044 -6.715579 0.5826415 25.53631 5.963688 4.256945 -13.62541 4.486507 4.319462 -14.384 14.74026 86.47511 19.66757 -20.38209 -0 0 3.677597 -27.57573 12.41692 14.73881 8.504301 -26.50361 -7.214358 -86.64278 14.40418 9.506351 0 0 -20.09998 22.3017 24.106 -13.41904
913.8664 101.1739 3017.966 3.502086 -6.312702 30.05123 5.958388 -7.382421 5.88557 -0 17.99607 -0 -2.876686 -6.191859 -7.222395 -2.628993 2.94182 -6.816161 -0 57.34114 -0 -8.526989 -6.657668 15.63833 -0.9543802 -3.405596 2.022602 1.102373 12.68325 -7.180191 0.3663095 25.1526 5.997168 4.460253 -13.46314 4.133642 4.529387 -14.60923 15.20507 86.31128 19.35873 -21.25632 -0 0 4.299283 -28.74116 13.66315 14.98225 8.747503 -27.26931 -7.259156 -87.04259 13.31708 10.09073 0 0 -19.86327 23.48596 24.07742 -15.13238
916.6642 102.2391 3023.291 4.300013 -6.78379 29.27284 5.410776 -1.786719 5.653155 -0 16.13977 -0 -2.815217 -8.043407 -6.308054 -2.408292 -4.227359 -6.318883 -0 58.34097 -0 -8.270927 -6.570591 16.8433 -0.5343749 -3.957066 2.337543 1.229438 13.42381 -7.677598 0.1178576 24.76096 6.026906 4.727876 -13.18593 3.682751 4.884749 -14.72783 15.76679 85.96213 19.15229 -22.13253 -0 0 4.970396 -29.99845 15.08569 15.22429 9.062122 -28.05684 -7.234563 -87.51502 12.09715 10.64498 0 0 -19.40017 24.90962 24.0763 -17.27208
919.3797 102.8346 3028.341 4.74283 -6.851465 28.53976 4.971065 3.113064 5.374623 -0 13.52289 -0 -2.342186 -9.459426 -5.322045 -1.615953 -11.07203 -5.390638 -0 54.66736 -0 -7.915337 -6.86209 17.84895 -0.1010332 -4.438351 2.654716 1.370291 14.11969 -8.125433 -0.1220184 24.39097 6.039193 5.015849 -12.87649 3.202949 5.288999 -14.81077 16.34799 85.47448 19.01819 -22.81216 -0 0 5.754673 -31.22686 16.52013 15.45939 9.388595 -28.7235 -7.138234 -88.10389 10.91189 11.2845 0 0 -18.55735 26.28802 24.06577 -19.46376
922.1149 102.8408 3033.269 4.640901 -6.617357 27.81918 4.747998 7.251051 5.084769 -0 11.42187 -0 -1.814409 -11.02119 -4.287756 -0.2891828 -16.93299 -4.223897 -0 47.0567 -0 -7.395764 -7.025754 18.74789 0.3150261 -4.81177 2.966253 1.491265 14.7259 -8.451776 -0.3069694 24.0627 6.016384 5.262982 -12.63693 2.779469 5.622299 -14.95411 16.85791 84.94781 18.87853 -23.15372 -0 0 6.685061 -32.28577 17.79837 15.67089 9.653266 -29.16371 -7.000872 -88.81397 9.928059 12.10212 0 0 -17.31758 27.31929 24.0341 -21.27068
924.9756 102.3076 3038.203 3.99866 -6.059151 27.07874 4.591375 10.73272 4.700714 -0 10.48002 -0 -1.491447 -13.00996 -3.132556 1.122929 -21.50603 -3.203033 -0 37.20285 -0 -6.739122 -6.928813 19.42957 0.6712599 -5.064503 3.244142 1.570198 15.20228 -8.631465 -0.409823 23.79683 5.959035 5.4207 -12.5361 2.484324 5.802822 -15.19017 17.21886 84.51827 18.67596 -23.18388 -0 0 7.644782 -33.04386 18.77437 15.82462 9.80866 -29.36915 -6.87403 -89.5408 9.262619 13.01227 0 0 -15.94892 27.84741 23.9901 -22.39441
928.0467 101.401 3043.253 3.0983 -5.244033 26.33296 4.276044 13.67001 4.215932 -0 10.83045 -0 -1.387894 -14.91607 -1.919033 2.035328 -24.66297 -2.70009 -0 27.56419 -0 -6.041927 -6.713181 19.80512 0.9130728 -5.201161 3.44196 1.601552 15.50753 -8.686834 -0.4327389 23.62056 5.891007 5.472813 -12.57591 2.353316 5.816431 -15.46064 17.38857 84.3019 18.42833 -23.05927 -0 0 8.394587 -33.42539 19.34093 15.89333 9.84965 -29.40768 -6.80231 -90.1018 8.958752 13.77594 0 0 -14.88706 27.91205 23.94559 -22.77156
931.3796 100.3292 3048.511 2.409752 -4.450015 25.6292 3.638382 16.14259 3.797425 -0 12.53579 -0 -1.33819 -15.68226 -0.9076395 2.061771 -26.37757 -2.888811 -0 20.48934 -0 -5.397207 -6.599972 19.97143 0.9964055 -5.232558 3.51865 1.593131 15.60976 -8.660741 -0.4007951 23.55875 5.84466 5.438962 -12.69369 2.374265 5.713758 -15.65688 17.37615 84.32528 18.22696 -22.93593 -0 0 8.717436 -33.44385 19.45746 15.88159 9.805691 -29.35826 -6.800092 -90.33988 8.980506 14.15562 0 0 -14.46433 27.68731 23.9125 -22.55722
934.9969 99.31113 3054.044 2.283921 -3.965449 25.02593 2.647016 18.07393 3.67784 -0 15.90224 -0 -1.112775 -14.40902 -0.3560445 1.190642 -26.69909 -3.681194 -0 17.05328 -0 -4.8242 -6.71499 20.05779 0.9100365 -5.16823 3.45991 1.559153 15.49939 -8.589193 -0.3473661 23.6204 5.842838 5.36164 -12.79643 2.495837 5.58406 -15.68095 17.23619 84.50984 18.18565 -22.8801 -0 0 8.533678 -33.18802 19.16488 15.82276 9.723191 -29.26768 -6.849327 -90.19912 9.231796 14.03424 0 0 -14.75444 27.38089 23.90732 -22.02916
938.8959 98.58964 3059.869 2.731059 -3.835253 24.61755 1.420933 19.10187 3.926327 -0 21.41132 -0 -0.5578991 -10.87864 -0.335713 -0.3136154 -25.67787 -4.823462 -0 16.78218 -0 -4.236878 -7.049709 20.0102 0.6727249 -5.012293 3.279266 1.511931 15.18866 -8.48394 -0.2951198 23.79669 5.88715 5.278367 -12.80923 2.660474 5.50933 -15.49399 17.03269 84.72747 18.37754 -22.85214 -0 0 7.914297 -32.75623 18.55271 15.75477 9.639394 -29.13637 -6.917639 -89.72852 9.611947 13.44145 0 0 -15.60277 27.12744 23.95155 -21.42755
943.0236 98.4194 3065.914 3.490457 -3.887287 24.54116 0.2223486 18.64463 4.355668 -0 29.34016 -0 0.2643879 -5.662367 -0.7873255 -2.096142 -23.31631 -6.03439 -0 18.37418 -0 -3.521313 -7.554906 19.64522 0.3206003 -4.763555 3.010532 1.456063 14.70809 -8.327249 -0.2413362 24.06593 5.953751 5.197294 -12.71519 2.8374 5.517331 -15.14177 16.80125 84.87377 18.79105 -22.72756 -0 0 7.043167 -32.19674 17.71166 15.69877 9.557914 -28.91822 -6.977875 -89.05663 10.07251 12.54418 0 0 -16.70974 26.91035 24.06251 -20.81303
947.241 98.97655 3071.986 4.222446 -3.972168 24.92348 -0.5997023 16.15328 4.652258 -0 39.20037 -0 1.057721 -0.07035037 -1.641049 -3.793395 -19.61304 -7.089348 -0 20.38481 -0 -2.688268 -8.242185 18.90053 -0.09075668 -4.427285 2.706252 1.389269 14.11705 -8.087003 -0.1595793 24.39244 6.000369 5.096262 -12.57323 3.031117 5.558386 -14.75174 16.54063 84.91602 19.31152 -22.35726 -0 0 6.175216 -31.51136 16.72724 15.65064 9.447199 -28.54572 -7.015144 -88.37276 10.62884 11.62827 0 0 -17.69009 26.56569 24.23458 -20.0509
951.3379 100.2145 3077.803 4.667208 -4.135515 25.79854 -0.8022644 11.46535 4.623336 -0 49.14147 -0 1.422158 4.175335 -2.793944 -5.063567 -14.74592 -7.864221 -0 21.516 -0 -1.902264 -9.178355 17.99528 -0.485923 -4.033554 2.431522 1.308007 13.50853 -7.750083 -0.0223518 24.7257 5.990188 4.947453 -12.49481 3.263196 5.529631 -14.48351 16.23516 84.90181 19.75666 -21.67017 -0 0 5.560993 -30.71467 15.69803 15.58993 9.269922 -27.98565 -7.023789 -87.88 11.31602 11.01275 0 0 -18.18515 25.89869 24.42216 -18.94984
